<svg width="116" height="116" viewBox="0 0 116 116" fill="none" xmlns="http://www.w3.org/2000/svg">
<rect width="116" height="116" fill="#2F2F2F"/>
<mask id="path-1-inside-1_0_1" fill="white">
<path d="M-659 -2737H781V2688H-659V-2737Z"/>
</mask>
<path d="M-659 -2737H781V2688H-659V-2737Z" fill="white"/>
<path d="M781 2687H-659V2689H781V2687Z" fill="#A200B0" mask="url(#path-1-inside-1_0_1)"/>
<g filter="url(#filter0_d_0_1)">
<rect x="-134" y="-38" width="385" height="476" rx="10" fill="white"/>
</g>
<path d="M48.3333 77.3333V72.5H14.5483V101.5H101.5V72.5H67.6667V77.3333H48.3333ZM106.333 33.8333H77.3333V24.1667L67.6667 14.5H48.3333L38.6667 24.1667V33.8333H9.66666V67.6667H48.3333V58H67.6667V67.6667H106.333V33.8333ZM67.6667 33.8333H48.3333V24.1667H67.6667V33.8333Z" fill="#A200B0"/>
<defs>
<filter id="filter0_d_0_1" x="-139" y="-43" width="395" height="486" filterUnits="userSpaceOnUse" color-interpolation-filters="sRGB">
<feFlood flood-opacity="0" result="BackgroundImageFix"/>
<feColorMatrix in="SourceAlpha" type="matrix" values="0 0 0 0 0 0 0 0 0 0 0 0 0 0 0 0 0 0 127 0" result="hardAlpha"/>
<feMorphology radius="1" operator="dilate" in="SourceAlpha" result="effect1_dropShadow_0_1"/>
<feOffset/>
<feGaussianBlur stdDeviation="2"/>
<feComposite in2="hardAlpha" operator="out"/>
<feColorMatrix type="matrix" values="0 0 0 0 0.654167 0 0 0 0 0.654167 0 0 0 0 0.654167 0 0 0 0.5 0"/>
<feBlend mode="normal" in2="BackgroundImageFix" result="effect1_dropShadow_0_1"/>
<feBlend mode="normal" in="SourceGraphic" in2="effect1_dropShadow_0_1" result="shape"/>
</filter>
</defs>
</svg>
