<svg width="182" height="34" viewBox="0 0 182 34" fill="none" xmlns="http://www.w3.org/2000/svg">
	<path d="M13.9855 26.36C11.4415 26.36 9.1375 25.808 7.0735 24.704C5.0335 23.576 3.4255 22.028 2.2495 20.06C1.0975 18.092 0.5215 15.872 0.5215 13.4C0.5215 10.928 1.1095 8.708 2.2855 6.74C3.4615 4.772 5.0695 3.236 7.1095 2.132C9.1735 1.004 11.4775 0.439999 14.0215 0.439999C16.0855 0.439999 17.9695 0.799999 19.6735 1.52C21.3775 2.24 22.8175 3.284 23.9935 4.652L20.9695 7.496C19.1455 5.528 16.9015 4.544 14.2375 4.544C12.5095 4.544 10.9615 4.928 9.5935 5.696C8.2255 6.44 7.1575 7.484 6.3895 8.828C5.6215 10.172 5.2375 11.696 5.2375 13.4C5.2375 15.104 5.6215 16.628 6.3895 17.972C7.1575 19.316 8.2255 20.372 9.5935 21.14C10.9615 21.884 12.5095 22.256 14.2375 22.256C16.9015 22.256 19.1455 21.26 20.9695 19.268L23.9935 22.148C22.8175 23.516 21.3655 24.56 19.6375 25.28C17.9335 26 16.0495 26.36 13.9855 26.36ZM35.9826 26.252C34.0386 26.252 32.2866 25.832 30.7266 24.992C29.1666 24.152 27.9426 22.988 27.0546 21.5C26.1906 19.988 25.7586 18.284 25.7586 16.388C25.7586 14.492 26.1906 12.8 27.0546 11.312C27.9426 9.824 29.1666 8.66 30.7266 7.82C32.2866 6.98 34.0386 6.56 35.9826 6.56C37.9506 6.56 39.7146 6.98 41.2746 7.82C42.8346 8.66 44.0466 9.824 44.9106 11.312C45.7986 12.8 46.2426 14.492 46.2426 16.388C46.2426 18.284 45.7986 19.988 44.9106 21.5C44.0466 22.988 42.8346 24.152 41.2746 24.992C39.7146 25.832 37.9506 26.252 35.9826 26.252ZM35.9826 22.4C37.6386 22.4 39.0066 21.848 40.0866 20.744C41.1666 19.64 41.7066 18.188 41.7066 16.388C41.7066 14.588 41.1666 13.136 40.0866 12.032C39.0066 10.928 37.6386 10.376 35.9826 10.376C34.3266 10.376 32.9586 10.928 31.8786 12.032C30.8226 13.136 30.2946 14.588 30.2946 16.388C30.2946 18.188 30.8226 19.64 31.8786 20.744C32.9586 21.848 34.3266 22.4 35.9826 22.4ZM74.8098 6.56C77.2338 6.56 79.1538 7.268 80.5698 8.684C81.9858 10.076 82.6938 12.176 82.6938 14.984V26H78.1938V15.56C78.1938 13.88 77.8218 12.62 77.0778 11.78C76.3338 10.916 75.2658 10.484 73.8738 10.484C72.3618 10.484 71.1498 10.988 70.2378 11.996C69.3258 12.98 68.8698 14.396 68.8698 16.244V26H64.3698V15.56C64.3698 13.88 63.9978 12.62 63.2538 11.78C62.5098 10.916 61.4418 10.484 60.0498 10.484C58.5138 10.484 57.2898 10.976 56.3778 11.96C55.4898 12.944 55.0458 14.372 55.0458 16.244V26H50.5458V6.776H54.8298V9.224C55.5498 8.36 56.4498 7.7 57.5298 7.244C58.6098 6.788 59.8098 6.56 61.1298 6.56C62.5698 6.56 63.8418 6.836 64.9458 7.388C66.0738 7.916 66.9618 8.708 67.6098 9.764C68.4018 8.756 69.4218 7.976 70.6698 7.424C71.9178 6.848 73.2978 6.56 74.8098 6.56ZM99.1002 6.56C100.972 6.56 102.64 6.968 104.104 7.784C105.592 8.6 106.756 9.752 107.596 11.24C108.436 12.728 108.856 14.444 108.856 16.388C108.856 18.332 108.436 20.06 107.596 21.572C106.756 23.06 105.592 24.212 104.104 25.028C102.64 25.844 100.972 26.252 99.1002 26.252C96.5082 26.252 94.4562 25.388 92.9442 23.66V32.984H88.4442V6.776H92.7282V9.296C93.4722 8.384 94.3842 7.7 95.4642 7.244C96.5682 6.788 97.7802 6.56 99.1002 6.56ZM98.5962 22.4C100.252 22.4 101.608 21.848 102.664 20.744C103.744 19.64 104.284 18.188 104.284 16.388C104.284 14.588 103.744 13.136 102.664 12.032C101.608 10.928 100.252 10.376 98.5962 10.376C97.5162 10.376 96.5442 10.628 95.6802 11.132C94.8162 11.612 94.1322 12.308 93.6282 13.22C93.1242 14.132 92.8722 15.188 92.8722 16.388C92.8722 17.588 93.1242 18.644 93.6282 19.556C94.1322 20.468 94.8162 21.176 95.6802 21.68C96.5442 22.16 97.5162 22.4 98.5962 22.4ZM131.916 6.776V26H127.632V23.516C126.888 24.428 125.964 25.112 124.86 25.568C123.78 26.024 122.58 26.252 121.26 26.252C119.388 26.252 117.708 25.844 116.22 25.028C114.756 24.212 113.604 23.06 112.764 21.572C111.948 20.084 111.54 18.356 111.54 16.388C111.54 14.42 111.948 12.704 112.764 11.24C113.604 9.752 114.756 8.6 116.22 7.784C117.708 6.968 119.388 6.56 121.26 6.56C122.508 6.56 123.648 6.776 124.68 7.208C125.736 7.64 126.648 8.276 127.416 9.116V6.776H131.916ZM121.764 22.4C123.42 22.4 124.788 21.848 125.868 20.744C126.948 19.64 127.488 18.188 127.488 16.388C127.488 14.588 126.948 13.136 125.868 12.032C124.788 10.928 123.42 10.376 121.764 10.376C120.108 10.376 118.74 10.928 117.66 12.032C116.604 13.136 116.076 14.588 116.076 16.388C116.076 18.188 116.604 19.64 117.66 20.744C118.74 21.848 120.108 22.4 121.764 22.4ZM148.712 6.56C151.136 6.56 153.08 7.268 154.544 8.684C156.008 10.1 156.74 12.2 156.74 14.984V26H152.24V15.56C152.24 13.88 151.844 12.62 151.052 11.78C150.26 10.916 149.132 10.484 147.668 10.484C146.012 10.484 144.704 10.988 143.744 11.996C142.784 12.98 142.304 14.408 142.304 16.28V26H137.804V6.776H142.088V9.26C142.832 8.372 143.768 7.7 144.896 7.244C146.024 6.788 147.296 6.56 148.712 6.56ZM181.06 6.776V23.084C181.06 29.852 177.736 33.236 171.088 33.236C169.336 33.236 167.656 32.996 166.048 32.516C164.464 32.06 163.156 31.388 162.124 30.5L164.14 27.116C164.956 27.812 165.952 28.364 167.128 28.772C168.304 29.18 169.54 29.384 170.836 29.384C172.804 29.384 174.244 28.904 175.156 27.944C176.092 27.008 176.56 25.556 176.56 23.588V22.688C175.84 23.48 174.964 24.092 173.932 24.524C172.9 24.932 171.784 25.136 170.584 25.136C168.016 25.136 165.988 24.428 164.5 23.012C163.036 21.596 162.304 19.472 162.304 16.64V6.776H166.804V16.064C166.804 17.768 167.188 19.052 167.956 19.916C168.748 20.756 169.864 21.176 171.304 21.176C172.912 21.176 174.184 20.684 175.12 19.7C176.08 18.716 176.56 17.288 176.56 15.416V6.776H181.06Z" fill="#2E2E2E" />
</svg>
